<?xml version="1.0" encoding="UTF-8"?>
<svg width="48px" height="48px" viewBox="0 0 48 48" version="1.1" xmlns="http://www.w3.org/2000/svg" xmlns:xlink="http://www.w3.org/1999/xlink">
    <!-- Generator: Sketch 52.3 (67297) - http://www.bohemiancoding.com/sketch -->
    <title>Group</title>
    <desc>Created with Sketch.</desc>
    <g id="Page-1" stroke="none" stroke-width="1" fill="none" fill-rule="evenodd">
        <g id="Desktop-HD-Copy-12" transform="translate(-80.000000, -80.000000)" fill="#000000" fill-rule="nonzero">
            <g id="Group" transform="translate(80.000000, 80.000000)">
                <path d="M13.0157622,15.4758059 C12.6367078,16.0629354 11.9766474,16.4516129 11.2258065,16.4516129 C10.0499744,16.4516129 9.09677419,15.4984127 9.09677419,14.3225806 C9.09677419,13.1467486 10.0499744,12.1935484 11.2258065,12.1935484 C11.9647955,12.1935484 12.6158473,12.5700523 12.9976029,13.1417012 C13.5215594,10.078009 16.1646784,7.74193548 19.3548387,7.74193548 L20.3225806,7.74193548 C21.2133625,7.74193548 21.9354839,8.46405686 21.9354839,9.35483871 C21.9354839,10.2456206 21.2133625,10.9677419 20.3225806,10.9677419 L19.3548387,10.9677419 C17.5780921,10.9677419 16.1290323,12.4361225 16.1290323,14.2580645 C16.1290323,16.0800065 17.5780921,17.5483871 19.3548387,17.5483871 L20.3225806,17.5483871 C21.2133625,17.5483871 21.9354839,18.2705085 21.9354839,19.1612903 C21.9354839,20.0520722 21.2133625,20.7741935 20.3225806,20.7741935 L19.3548387,20.7741935 C16.1999594,20.7741935 13.5800886,18.4895052 13.0157622,15.4758059 Z M24,48 C10.745166,48 0,37.254834 0,24 C0,10.745166 10.745166,0 24,0 C37.254834,0 48,10.745166 48,24 C48,37.254834 37.254834,48 24,48 Z M24,44.7741935 C35.4732703,44.7741935 44.7741935,35.4732703 44.7741935,24 C44.7741935,12.5267297 35.4732703,3.22580645 24,3.22580645 C12.5267297,3.22580645 3.22580645,12.5267297 3.22580645,24 C3.22580645,35.4732703 12.5267297,44.7741935 24,44.7741935 Z M28.2580645,16.4516129 C27.0822325,16.4516129 26.1290323,15.4984127 26.1290323,14.3225806 C26.1290323,13.1467486 27.0822325,12.1935484 28.2580645,12.1935484 C29.4338966,12.1935484 30.3870968,13.1467486 30.3870968,14.3225806 C30.3870968,15.4984127 29.4338966,16.4516129 28.2580645,16.4516129 Z M18.9677419,28.8387097 C18.0769601,28.8387097 17.3548387,28.1165883 17.3548387,27.2258065 C17.3548387,26.3350246 18.0769601,25.6129032 18.9677419,25.6129032 L21.7714368,25.6129032 C22.6622187,25.6129032 23.38434,26.3350246 23.38434,27.2258065 C23.38434,28.1165883 22.6622187,28.8387097 21.7714368,28.8387097 L18.9677419,28.8387097 Z" id="Combined-Shape"></path>
            </g>
        </g>
    </g>
</svg>