<?xml version="1.0" encoding="UTF-8"?>
<svg width="17px" height="24px" viewBox="0 0 17 24" version="1.1" xmlns="http://www.w3.org/2000/svg" xmlns:xlink="http://www.w3.org/1999/xlink">
    <!-- Generator: Sketch 52.3 (67297) - http://www.bohemiancoding.com/sketch -->
    <title>Combined Shape</title>
    <desc>Created with Sketch.</desc>
    <g id="Page-1" stroke="none" stroke-width="1" fill="none" fill-rule="evenodd">
        <g id="Desktop-HD-Copy-12" transform="translate(-1267.000000, -667.000000)" fill="#FFFFFF" fill-rule="nonzero">
            <g id="Group-2" transform="translate(550.000000, 523.000000)">
                <path d="M725,146 C721.686292,146 719,148.686292 719,152 L719,160 C719,163.313708 721.686292,166 725,166 L726,166 C729.313708,166 732,163.313708 732,160 L732,152 C732,148.686292 729.313708,146 726,146 L725,146 Z M725,144 L726,144 C730.418278,144 734,147.581722 734,152 L734,160 C734,164.418278 730.418278,168 726,168 L725,168 C720.581722,168 717,164.418278 717,160 L717,152 C717,147.581722 720.581722,144 725,144 Z M725.5,149 C726.328427,149 727,149.671573 727,150.5 L727,153.5 C727,154.328427 726.328427,155 725.5,155 C724.671573,155 724,154.328427 724,153.5 L724,150.5 C724,149.671573 724.671573,149 725.5,149 Z" id="Combined-Shape"></path>
            </g>
        </g>
    </g>
</svg>